<?xml version="1.0" standalone="no"?>
<!DOCTYPE svg PUBLIC "-//W3C//DTD SVG 20010904//EN"
 "http://www.w3.org/TR/2001/REC-SVG-20010904/DTD/svg10.dtd">
<svg version="1.0" xmlns="http://www.w3.org/2000/svg"
 width="512.000000pt" height="512.000000pt" viewBox="0 0 512.000000 512.000000"
 preserveAspectRatio="xMidYMid meet">

<g transform="translate(0.000000,512.000000) scale(0.100000,-0.100000)"
fill="#FFFFFF" stroke="none">
<path d="M655 5114 c-11 -2 -45 -9 -75 -15 -217 -44 -429 -224 -522 -444 -56
-133 -53 -12 -53 -2095 0 -2083 -3 -1962 53 -2095 76 -178 229 -332 402 -405
136 -57 81 -54 1058 -57 l902 -4 0 911 0 910 -300 0 -300 0 0 300 0 300 299 0
300 0 4 443 c4 471 4 470 57 597 72 171 228 327 400 400 127 53 126 53 598 57
l442 4 0 -300 0 -300 -337 -3 c-383 -3 -390 -5 -473 -88 -83 -83 -85 -90 -88
-472 l-3 -338 436 0 c408 0 435 -1 434 -17 0 -10 -21 -144 -47 -298 l-48 -280
-387 -3 -387 -2 0 -911 0 -910 743 4 c800 3 763 1 897 57 212 89 383 290 441
520 21 82 21 3878 0 3960 -59 230 -227 429 -441 520 -140 59 19 54 -2070 56
-1053 1 -1924 0 -1935 -2z m3796 -304 c180 -34 325 -179 359 -359 14 -74 14
-3708 0 -3782 -34 -180 -179 -325 -359 -359 -32 -6 -268 -10 -592 -10 l-539 0
0 610 0 610 363 0 364 0 100 600 100 600 -464 0 -463 0 0 150 0 150 450 0 450
0 0 600 0 600 -561 0 c-348 0 -587 -4 -632 -11 -467 -70 -826 -429 -896 -896
-6 -39 -11 -189 -11 -332 l0 -261 -300 0 -300 0 0 -600 0 -600 300 0 300 0 0
-610 0 -610 -699 0 c-433 0 -719 4 -752 10 -180 34 -325 179 -359 359 -14 74
-14 3708 0 3782 33 176 179 324 351 358 65 13 3723 13 3790 1z"/>
</g>
</svg>
