<?xml version="1.0" standalone="no"?>
<!DOCTYPE svg PUBLIC "-//W3C//DTD SVG 20010904//EN"
 "http://www.w3.org/TR/2001/REC-SVG-20010904/DTD/svg10.dtd">
<svg version="1.0" xmlns="http://www.w3.org/2000/svg"
 width="512.000000pt" height="512.000000pt" viewBox="0 0 512.000000 512.000000"
 preserveAspectRatio="xMidYMid meet">

<g transform="translate(0.000000,512.000000) scale(0.100000,-0.100000)"
fill="#FFFFFF" stroke="none">
<path d="M2330 5110 c-494 -48 -950 -230 -1350 -538 -195 -150 -448 -432 -594
-662 -63 -99 -186 -351 -230 -471 -49 -134 -102 -340 -128 -499 -31 -195 -31
-565 0 -760 45 -276 116 -498 237 -745 132 -269 269 -460 489 -681 221 -220
412 -357 681 -489 247 -121 469 -192 745 -237 195 -31 565 -31 760 0 276 45
498 116 745 237 269 132 460 269 681 489 220 221 357 412 489 681 88 179 132
296 180 476 63 240 78 371 78 649 0 278 -15 409 -78 649 -48 180 -92 297 -180
476 -132 269 -269 460 -489 681 -221 220 -412 357 -681 489 -246 121 -474 193
-740 235 -147 23 -475 34 -615 20z m545 -195 c409 -57 783 -211 1115 -459 118
-88 318 -281 415 -401 278 -343 455 -760 516 -1215 16 -122 16 -438 0 -560
-61 -455 -238 -872 -516 -1215 -97 -120 -297 -313 -415 -401 -339 -253 -721
-408 -1150 -465 -122 -16 -438 -16 -560 0 -429 57 -811 212 -1150 465 -118 88
-318 281 -415 401 -278 343 -455 760 -516 1215 -16 122 -16 438 0 560 61 455
238 872 516 1215 97 120 297 313 415 401 379 284 807 441 1295 478 86 6 346
-4 450 -19z"/>
<path d="M2075 3819 c-354 -29 -805 -115 -1093 -210 -117 -39 -179 -86 -218
-165 -36 -74 -39 -174 -7 -244 45 -97 156 -170 261 -170 27 0 106 18 181 40
671 202 1394 234 2011 89 265 -63 451 -132 724 -272 177 -91 179 -92 250 -91
167 1 286 119 286 284 0 107 -45 185 -142 249 -85 56 -357 189 -498 244 -340
132 -713 216 -1104 247 -147 11 -503 11 -651 -1z m775 -194 c456 -53 879 -181
1250 -377 63 -33 127 -69 141 -79 35 -24 53 -70 45 -112 -8 -41 -31 -64 -77
-77 -31 -9 -48 -3 -229 88 -301 152 -523 229 -828 291 -241 49 -377 63 -660
68 -459 9 -862 -43 -1297 -168 -112 -32 -183 -47 -199 -43 -76 19 -104 120
-47 173 87 81 722 215 1186 251 165 12 552 4 715 -15z"/>
<path d="M2037 3030 c-386 -29 -808 -142 -931 -251 -21 -18 -49 -55 -64 -83
-22 -43 -27 -64 -27 -131 0 -70 4 -87 30 -134 55 -99 143 -151 254 -151 31 1
72 7 91 14 230 87 325 113 520 143 158 24 523 24 705 -1 361 -49 637 -124
1097 -300 165 -63 213 -69 300 -36 53 19 116 74 150 130 48 78 43 207 -11 292
-42 66 -85 94 -248 160 -639 259 -1327 388 -1866 348z m703 -213 c368 -57 675
-141 1052 -289 198 -77 218 -92 218 -162 0 -47 -24 -80 -68 -97 -34 -13 -66
-5 -192 48 -233 98 -584 204 -850 257 -378 75 -759 86 -1095 30 -132 -22 -301
-68 -399 -108 -105 -44 -136 -45 -176 -8 -69 62 -42 144 63 192 138 62 383
125 582 149 50 6 104 13 120 15 17 2 154 3 305 1 234 -2 300 -7 440 -28z"/>
<path d="M2060 2283 c-205 -15 -476 -64 -659 -119 -183 -56 -236 -91 -282
-189 -70 -147 -6 -319 145 -386 70 -31 140 -28 266 9 287 85 439 107 750 107
266 0 353 -10 578 -65 164 -40 290 -87 492 -185 160 -78 180 -85 235 -85 116
0 212 56 263 154 22 43 27 64 27 131 0 67 -5 88 -27 131 -35 66 -75 100 -189
162 -334 180 -724 295 -1119 331 -106 10 -373 12 -480 4z m426 -183 c366 -29
703 -122 1019 -280 118 -59 154 -82 173 -110 43 -63 7 -144 -69 -156 -30 -5
-56 4 -160 56 -269 135 -488 207 -774 254 -211 35 -570 35 -795 1 -114 -18
-359 -74 -429 -99 -64 -23 -104 -20 -140 10 -62 52 -46 139 32 174 108 48 373
109 582 134 221 27 368 31 561 16z"/>
</g>
</svg>
